<svg xmlns="http://www.w3.org/2000/svg" width="152.378" height="46.344" viewBox="0 0 152.378 46.344">
  <defs>
    <style>
      .cls-1 {
        fill: #ff5000;
        stroke: #fff;
        strokeWidth: 2px;
        fill-rule: evenodd;
      }
    </style>
  </defs>
  <path className="cls-1" d="M959.091,444.825a1.189,1.189,0,0,1,1.185-1.2h25.38a1.188,1.188,0,0,1,1.185,1.2v5.154a1.188,1.188,0,0,1-1.185,1.2H967.2v10.316h15.4a1.228,1.228,0,0,1,1.181,1.192v5.222A1.186,1.186,0,0,1,982.6,469.1H967.2v11.006h18.457a1.188,1.188,0,0,1,1.185,1.194v5.157a1.187,1.187,0,0,1-1.185,1.195h-25.38a1.188,1.188,0,0,1-1.185-1.195V444.825Zm54.109-1.41a22.176,22.176,0,1,1-21.93,22.235A22.039,22.039,0,0,1,1013.2,443.415Zm0,36.341a14.168,14.168,0,1,0-13.989-14.106A14.133,14.133,0,0,0,1013.2,479.756Zm-128.257,6.275L904.156,444.1a1.112,1.112,0,0,1,1.051-.685h0.618a1.049,1.049,0,0,1,1.049.685l19.033,41.931a1.1,1.1,0,0,1-1.05,1.62h-5.378a1.774,1.774,0,0,1-1.791-1.247l-3.029-6.727H896.188l-3.027,6.727a1.863,1.863,0,0,1-1.793,1.247H886A1.1,1.1,0,0,1,884.943,486.031Zm26.692-13.27-6.181-13.708h-0.187l-6.052,13.708h12.42Zm18.114-29.132H914.936a1.036,1.036,0,0,0-.308.052l3.435,7.542h0l0.021,0.041,3.838-.009H929c8.127,0,14.061,6.178,14.061,14.372,0,7.515-4.912,13.3-11.921,14.285l3.335,7.318A22.072,22.072,0,0,0,929.749,443.629Z" transform="translate(-883.812 -442.406)"/>
</svg>
