<svg xmlns="http://www.w3.org/2000/svg" width="115.94" height="34" viewBox="0 0 115.94 34">
  <defs>
    <style>
      .cls-1 {
        fill: #ff5000;
        fill-rule: evenodd;
      }
    </style>
  </defs>
  <path className="cls-1" d="M4711.86,60.621a0.919,0.919,0,0,1,.92-0.917h19.56a0.919,0.919,0,0,1,.92.917v3.95a0.919,0.919,0,0,1-.92.917h-14.23v7.906h11.88a0.943,0.943,0,0,1,.91.914v4a0.912,0.912,0,0,1-.91.915h-11.88v8.435h14.23a0.919,0.919,0,0,1,.92.915v3.953a0.918,0.918,0,0,1-.92.916h-19.56a0.918,0.918,0,0,1-.92-0.916V60.621Zm41.72-1.081a17,17,0,1,1-16.91,17.042A16.94,16.94,0,0,1,4753.58,59.541Zm0,27.854a10.859,10.859,0,1,0-10.78-10.811A10.868,10.868,0,0,0,4753.58,87.394ZM4654.7,92.2l14.81-32.139a0.851,0.851,0,0,1,.81-0.525h0.48a0.822,0.822,0,0,1,.81.525L4686.28,92.2a0.846,0.846,0,0,1-.81,1.241h-4.15a1.375,1.375,0,0,1-1.38-.955l-2.33-5.156h-14.24l-2.34,5.156a1.436,1.436,0,0,1-1.38.955h-4.14A0.84,0.84,0,0,1,4654.7,92.2Zm20.58-10.171-4.77-10.507h-0.14l-4.67,10.507h9.58ZM4689.24,59.7h-11.42a0.87,0.87,0,0,0-.24.04l2.65,5.781h0.01l0.01,0.031,2.96-.007h5.45a10.636,10.636,0,0,1,10.84,11.016c0,5.76-3.78,10.195-9.19,10.949l2.57,5.609A16.906,16.906,0,0,0,4689.24,59.7Z" transform="translate(-4654.59 -59.531)"/>
</svg>
