<svg xmlns="http://www.w3.org/2000/svg" width="115.937" height="34" viewBox="0 0 115.937 34">
  <defs>
    <style>
      .cls-1 {
        fill: #fff;
        fill-rule: evenodd;
      }
    </style>
  </defs>
  <path className="cls-1" d="M115.864,60.621a0.913,0.913,0,0,1,.914-0.917h19.567a0.913,0.913,0,0,1,.913.917v3.95a0.913,0.913,0,0,1-.913.917H122.114v7.906h11.877a0.945,0.945,0,0,1,.911.914v4a0.913,0.913,0,0,1-.911.915H122.114v8.435h14.231a0.913,0.913,0,0,1,.913.915v3.953a0.912,0.912,0,0,1-.913.916H116.778a0.913,0.913,0,0,1-.914-0.916V60.621Zm41.714-1.081a17,17,0,1,1-16.9,17.042A16.942,16.942,0,0,1,157.578,59.541Zm0,27.854a10.859,10.859,0,1,0-10.783-10.811A10.867,10.867,0,0,0,157.578,87.394ZM58.7,92.2L73.51,60.065a0.857,0.857,0,0,1,.81-0.525H74.8a0.808,0.808,0,0,1,.809.525L90.279,92.2a0.844,0.844,0,0,1-.81,1.241H85.324a1.368,1.368,0,0,1-1.381-.955l-2.335-5.156H67.366L65.033,92.49a1.435,1.435,0,0,1-1.382.955H59.508A0.843,0.843,0,0,1,58.7,92.2ZM79.275,82.033L74.511,71.526H74.367L69.7,82.033h9.575ZM93.242,59.7H81.821a0.791,0.791,0,0,0-.237.04l2.648,5.781h0l0.016,0.031,2.958-.007h5.453A10.64,10.64,0,0,1,103.5,76.566a10.636,10.636,0,0,1-9.19,10.949l2.572,5.609A16.907,16.907,0,0,0,93.242,59.7Z" transform="translate(-58.594 -59.531)"/>
</svg>
