<svg id="branding_2" xmlns="http://www.w3.org/2000/svg" width="341" height="260" viewBox="0 0 341 260">
  <path id="Path_135" data-name="Path 135" d="M587.914,60H857.086V249H587.914Z" transform="translate(-552 -24)" fill="none" stroke="#fff" stroke-width="2" fill-rule="evenodd"/>
  <path id="Path_136" data-name="Path 136" d="M588,60l30,30" transform="translate(-552 -24)" fill="none" stroke="#fff" stroke-width="2" fill-rule="evenodd"/>
  <path id="Path_137" data-name="Path 137" d="M553,60V25h35" transform="translate(-552 -24)" fill="none" stroke="#fff" stroke-width="2" fill-rule="evenodd"/>
  <path id="Shape_13_copy" data-name="Shape 13 copy" d="M856.848,60.152,826.722,90.278" transform="translate(-552 -24)" fill="none" stroke="#fff" stroke-width="2" fill-rule="evenodd"/>
  <path id="Shape_13_copy_3" data-name="Shape 13 copy 3" d="M745.726,132.274l-44.848,44.848" transform="translate(-552 -24)" fill="none" stroke="#fff" stroke-width="11" fill-rule="evenodd"/>
  <path id="Shape_13_copy_4" data-name="Shape 13 copy 4" d="M700.867,132.274l44.849,44.848" transform="translate(-552 -24)" fill="none" stroke="#06f957" stroke-width="11" fill-rule="evenodd"/>
  <path id="Rectangle_21_copy" data-name="Rectangle 21 copy" d="M892,60.152V25H856.848" transform="translate(-552 -24)" fill="none" stroke="#fff" stroke-width="2" fill-rule="evenodd"/>
  <path id="Shape_13_copy_2" data-name="Shape 13 copy 2" d="M588,248l30-30" transform="translate(-552 -24)" fill="none" stroke="#fff" stroke-width="2" fill-rule="evenodd"/>
  <path id="Rectangle_21_copy_2" data-name="Rectangle 21 copy 2" d="M553,248v35h35" transform="translate(-552 -24)" fill="none" stroke="#fff" stroke-width="2" fill-rule="evenodd"/>
  <path id="Shape_13_copy_2-2" data-name="Shape 13 copy 2" d="M856.848,247.848l-30.126-30.126" transform="translate(-552 -24)" fill="none" stroke="#fff" stroke-width="2" fill-rule="evenodd"/>
  <path id="Rectangle_21_copy_2-2" data-name="Rectangle 21 copy 2" d="M892,247.848V283H856.848" transform="translate(-552 -24)" fill="none" stroke="#fff" stroke-width="2" fill-rule="evenodd"/>
</svg>
