<svg id="branding_8" xmlns="http://www.w3.org/2000/svg" width="425" height="280" viewBox="0 0 425 280">
  <rect id="Rectangle_19_copy_2" data-name="Rectangle 19 copy 2" width="199" height="119" fill="#fff"/>
  <rect id="Rectangle_19_copy_3" data-name="Rectangle 19 copy 3" width="199" height="119" transform="translate(0 161)" fill="#fff"/>
  <rect id="Rectangle_19_copy" data-name="Rectangle 19 copy" width="199" height="280" transform="translate(226)" fill="#06f957"/>
  <path id="_3" data-name="3" d="M1372.5,777.2c0-15.6-4.5-28.8-13.8-39.3s-20.4-17.7-33.9-21.3l43.8-61.8V644H1241.1v36.6h66l-41.4,57.9V749h24.9c26.4,0,40.5,10.2,40.5,28.5,0,18.9-14.4,30.6-34.5,30.6-18.3,0-30.6-9.3-42.6-27.3l-28.2,19.8c13.5,27.3,39.3,45,72,45C1338.9,845.6,1372.5,817.1,1372.5,777.2Z" transform="translate(-978 -599)" fill="#17222a" fill-rule="evenodd"/>
  <path id="_0" data-name="0" d="M1007.3,741.2q0,45.45,17.1,74.7c11.4,19.5,28.8,29.1,52.5,29.1s41.1-9.6,52.5-29.1,17.1-44.4,17.1-74.7c0-30.6-5.7-54.9-17.4-72.9-11.4-18.3-28.8-27.3-52.2-27.3s-40.8,9-52.5,27.3Q1007.3,695.748,1007.3,741.2Zm123,0c0,27-4.2,48.6-12.9,64.8q-12.6,24.3-40.5,24.3-27.45,0-40.5-24.3-12.6-24.3-12.6-64.8c0-52.8,15.9-85.8,53.1-85.8C1114.4,655.4,1130.3,688.4,1130.3,741.2Z" transform="translate(-978 -599)" fill="#17222a" fill-rule="evenodd"/>
</svg>
