<svg id="branding_10" xmlns="http://www.w3.org/2000/svg" width="425" height="172" viewBox="0 0 425 172">
  <defs>
    <style>
      .cls-1 {
        fill: #fff;
      }

      .cls-1, .cls-2 {
        fill-rule: evenodd;
      }

      .cls-2 {
        fill: #17222a;
      }
    </style>
  </defs>
  <path id="Rectangle_9_copy_3" data-name="Rectangle 9 copy 3" class="cls-1" d="M977.987,908H1403v347.01H977.987V908Z" transform="translate(-978 -908)"/>
  <path id="_" data-name="&amp;&amp;&amp;&amp;&amp;&amp;&amp;&amp;&amp;&amp;" class="cls-2" d="M1022.29,1023.7a26.44,26.44,0,0,0-5.65,6.13,10.741,10.741,0,0,0-1.6,5.48,9.636,9.636,0,0,0,3.3,7.69q3.3,2.85,8.99,2.85,6.435,0,11.99-5.55l4.44,4.98h1.9l-5.38-6.12a19.213,19.213,0,0,0,3.77-11.78h-1.56a17.675,17.675,0,0,1-3.26,10.59l-13.45-15.26,4.41-3.51q5.325-4.425,5.33-8.27a7.193,7.193,0,0,0-2.14-5.4,7.819,7.819,0,0,0-5.68-2.08,8.41,8.41,0,0,0-6.24,2.4,8.6,8.6,0,0,0-2.4,6.38,11.841,11.841,0,0,0,1.09,4.84,25.785,25.785,0,0,0,3.59,5.5Zm-2.79,18.13a8.164,8.164,0,0,1-2.93-6.52,9.3,9.3,0,0,1,1.63-5.1,26.427,26.427,0,0,1,4.97-5.4l1.47-1.17,13.68,15.5a14.906,14.906,0,0,1-5,3.83,13.772,13.772,0,0,1-5.99,1.35A11.711,11.711,0,0,1,1019.5,1041.83Zm3.06-34.85a6.846,6.846,0,0,1,5.14-2,6.236,6.236,0,0,1,4.49,1.67,5.682,5.682,0,0,1,1.74,4.28c0,2.25-1.37,4.51-4.1,6.8l-4.96,3.93q-4.245-5.01-4.25-9.49A7.144,7.144,0,0,1,1022.56,1006.98Zm35.05,16.72a26.44,26.44,0,0,0-5.65,6.13,10.645,10.645,0,0,0-1.6,5.48,9.636,9.636,0,0,0,3.3,7.69q3.3,2.85,8.99,2.85,6.435,0,11.98-5.55l4.45,4.98h1.9l-5.38-6.12a19.206,19.206,0,0,0,3.76-11.78h-1.55a17.675,17.675,0,0,1-3.26,10.59l-13.45-15.26,4.41-3.51q5.325-4.425,5.33-8.27a7.193,7.193,0,0,0-2.14-5.4,7.835,7.835,0,0,0-5.68-2.08,8.41,8.41,0,0,0-6.24,2.4,8.6,8.6,0,0,0-2.4,6.38,11.841,11.841,0,0,0,1.09,4.84,25.4,25.4,0,0,0,3.59,5.5Zm-2.79,18.13a8.164,8.164,0,0,1-2.93-6.52,9.3,9.3,0,0,1,1.63-5.1,26.142,26.142,0,0,1,4.97-5.4l1.47-1.17,13.68,15.5a14.906,14.906,0,0,1-5,3.83,13.772,13.772,0,0,1-5.99,1.35A11.711,11.711,0,0,1,1054.82,1041.83Zm3.06-34.85a6.846,6.846,0,0,1,5.14-2,6.236,6.236,0,0,1,4.49,1.67,5.682,5.682,0,0,1,1.74,4.28c0,2.25-1.37,4.51-4.1,6.8l-4.96,3.93q-4.245-5.01-4.25-9.49A7.144,7.144,0,0,1,1057.88,1006.98Zm35.59,16.1a26.765,26.765,0,0,0-6.22,6.02,10.635,10.635,0,0,0,1.69,13.73q3.45,3.015,9.34,3.02a15.633,15.633,0,0,0,6.19-1.25,16.382,16.382,0,0,0,5.17-3.45l3.57,4.13h4.08l-5.64-6.57a19.219,19.219,0,0,0,3.63-11.87h-3.15a17.55,17.55,0,0,1-2.57,9.44l-11.33-13.2,4.53-3.51q4.7-3.945,4.7-8.02a7.6,7.6,0,0,0-2.43-5.79,8.968,8.968,0,0,0-6.38-2.28,9.458,9.458,0,0,0-6.91,2.52,9.145,9.145,0,0,0-2.58,6.85,10.71,10.71,0,0,0,1.12,4.63,26.665,26.665,0,0,0,3.59,5.31Zm-2.07,17.66a7.585,7.585,0,0,1-2.55-5.97q0-4.245,5.55-8.77l1.31-1,0.39,0.43,11.53,13.37a13.831,13.831,0,0,1-4.35,3.1,12.145,12.145,0,0,1-5,1.09A10.038,10.038,0,0,1,1091.4,1040.74Zm2.81-32.59a5.684,5.684,0,0,1,4.41-1.78,5.57,5.57,0,0,1,4.08,1.49,4.934,4.934,0,0,1,1.53,3.69,5.923,5.923,0,0,1-1.16,3.66,13.538,13.538,0,0,1-2.97,2.86l-3.71,2.83q-3.825-4.71-3.83-8.16A6.5,6.5,0,0,1,1094.21,1008.15Zm34.95,14.93a26.563,26.563,0,0,0-6.22,6.02,10.635,10.635,0,0,0,1.69,13.73q3.45,3.015,9.34,3.02a15.669,15.669,0,0,0,6.19-1.25,16.382,16.382,0,0,0,5.17-3.45l3.57,4.13h4.08l-5.64-6.57a19.219,19.219,0,0,0,3.63-11.87h-3.15a17.639,17.639,0,0,1-2.57,9.44l-11.33-13.2,4.53-3.51q4.695-3.945,4.7-8.02a7.568,7.568,0,0,0-2.44-5.79,8.927,8.927,0,0,0-6.37-2.28,9.458,9.458,0,0,0-6.91,2.52,9.145,9.145,0,0,0-2.58,6.85,10.569,10.569,0,0,0,1.12,4.63,27,27,0,0,0,3.58,5.31Zm-2.07,17.66a7.585,7.585,0,0,1-2.55-5.97q0-4.245,5.55-8.77l1.31-1,0.39,0.43,11.53,13.37a13.945,13.945,0,0,1-4.35,3.1,12.145,12.145,0,0,1-5,1.09A10.021,10.021,0,0,1,1127.09,1040.74Zm2.8-32.59a5.72,5.72,0,0,1,4.42-1.78,5.57,5.57,0,0,1,4.08,1.49,4.934,4.934,0,0,1,1.53,3.69,5.986,5.986,0,0,1-1.16,3.66,14,14,0,0,1-2.97,2.86l-3.72,2.83c-2.54-3.14-3.82-5.86-3.82-8.16A6.534,6.534,0,0,1,1129.89,1008.15Zm30.42,34.5q3.66,3.195,9.69,3.2a17.488,17.488,0,0,0,5.74-.98,14.371,14.371,0,0,0,4.91-2.85l2.75,3.26h6.28l-5.89-7.05a19.7,19.7,0,0,0,3.49-11.98h-4.73a17.291,17.291,0,0,1-1.93,8.18l-9.18-10.96,3.04-2.23a16.552,16.552,0,0,0,4.4-4.43,8.853,8.853,0,0,0,1.26-4.61,8.008,8.008,0,0,0-2.78-6.24,10.157,10.157,0,0,0-7.02-2.48,10.442,10.442,0,0,0-7.53,2.66,10.453,10.453,0,0,0-1.85,11.42,27.879,27.879,0,0,0,3.69,5.38,25.129,25.129,0,0,0-6.33,5.8,9.646,9.646,0,0,0-1.66,5.47A10.7,10.7,0,0,0,1160.31,1042.65Zm3.76-3.09a6.927,6.927,0,0,1-2.17-5.35c0-2.46,1.58-4.84,4.73-7.17l0.93-.68,10.06,12.04a11.036,11.036,0,0,1-7.62,3.17A8.37,8.37,0,0,1,1164.07,1039.56Zm2.56-30.2a4.608,4.608,0,0,1,3.68-1.57,5.157,5.157,0,0,1,3.57,1.26,4.058,4.058,0,0,1,1.42,3.15,5.933,5.933,0,0,1-.71,2.99,8.767,8.767,0,0,1-2.64,2.59l-3.34,2.35q-3.345-4.08-3.34-6.79A5.826,5.826,0,0,1,1166.63,1009.36Zm29.74,33.29c2.44,2.13,5.66,3.2,9.69,3.2a17.43,17.43,0,0,0,5.73-.98,14.323,14.323,0,0,0,4.92-2.85l2.74,3.26h6.29l-5.89-7.05a19.765,19.765,0,0,0,3.48-11.98h-4.73a17.4,17.4,0,0,1-1.92,8.18l-9.18-10.96,3.03-2.23a16.462,16.462,0,0,0,4.41-4.43,8.853,8.853,0,0,0,1.26-4.61,8.008,8.008,0,0,0-2.78-6.24,10.157,10.157,0,0,0-7.02-2.48,10.451,10.451,0,0,0-7.54,2.66,10.47,10.47,0,0,0-1.84,11.42,27.279,27.279,0,0,0,3.68,5.38,25.494,25.494,0,0,0-6.33,5.8,9.713,9.713,0,0,0-1.65,5.47A10.671,10.671,0,0,0,1196.37,1042.65Zm3.75-3.09a6.955,6.955,0,0,1-2.16-5.35c0-2.46,1.57-4.84,4.73-7.17l0.93-.68,10.06,12.04a11.072,11.072,0,0,1-7.62,3.17A8.4,8.4,0,0,1,1200.12,1039.56Zm2.57-30.2a4.6,4.6,0,0,1,3.68-1.57,5.192,5.192,0,0,1,3.57,1.26,4.049,4.049,0,0,1,1.41,3.15,5.831,5.831,0,0,1-.71,2.99,8.834,8.834,0,0,1-2.63,2.59l-3.34,2.35q-3.345-4.08-3.34-6.79A5.826,5.826,0,0,1,1202.69,1009.36Zm29.32,33.24q3.675,3.255,9.79,3.25a17.078,17.078,0,0,0,10.54-3.32l2.32,2.75h7.99l-6.06-7.16q3.555-4.875,3.56-12.49h-5.97a16.489,16.489,0,0,1-1.73,7.56l-7.96-9.4,2.81-2.04a15.585,15.585,0,0,0,4.27-4.32,9.05,9.05,0,0,0,1.3-4.75,8.527,8.527,0,0,0-2.87-6.55,10.458,10.458,0,0,0-7.38-2.65,10.987,10.987,0,0,0-7.93,2.82,10.708,10.708,0,0,0-2,11.77,26.441,26.441,0,0,0,3.36,5.15,24.405,24.405,0,0,0-6.15,5.68,9.464,9.464,0,0,0-1.55,5.25A10.742,10.742,0,0,0,1232.01,1042.6Zm5.06-4.03a6.176,6.176,0,0,1-1.84-4.65c0-2.2,1.13-4.17,3.4-5.89l0.88-.62,9,10.62a10.487,10.487,0,0,1-6.51,2.32A6.781,6.781,0,0,1,1237.07,1038.57Zm2.32-28.21a4.068,4.068,0,0,1,3.2-1.36,4.343,4.343,0,0,1,3.09,1.15,3.651,3.651,0,0,1,1.22,2.76,5.075,5.075,0,0,1-1.76,3.99l-0.88.71-3.14,2.15c-1.94-2.39-2.92-4.38-2.92-5.97A5.042,5.042,0,0,1,1239.39,1010.36Zm29.7,32.24q3.675,3.255,9.79,3.25a17.049,17.049,0,0,0,10.53-3.32l2.32,2.75h7.99l-6.06-7.16q3.57-4.875,3.57-12.49h-5.98a16.484,16.484,0,0,1-1.72,7.56l-7.96-9.4,2.8-2.04a15.638,15.638,0,0,0,4.28-4.32,9.05,9.05,0,0,0,1.3-4.75,8.561,8.561,0,0,0-2.87-6.55,10.458,10.458,0,0,0-7.38-2.65,10.971,10.971,0,0,0-7.93,2.82,10.654,10.654,0,0,0-2,11.77,25.53,25.53,0,0,0,3.36,5.15,24.405,24.405,0,0,0-6.15,5.68,9.393,9.393,0,0,0-1.56,5.25A10.719,10.719,0,0,0,1269.09,1042.6Zm5.06-4.03a6.183,6.183,0,0,1-1.85-4.65c0-2.2,1.14-4.17,3.4-5.89l0.88-.62,9.01,10.62a10.493,10.493,0,0,1-6.52,2.32A6.757,6.757,0,0,1,1274.15,1038.57Zm2.32-28.21a4.054,4.054,0,0,1,3.2-1.36,4.36,4.36,0,0,1,3.09,1.15,3.641,3.641,0,0,1,1.21,2.76,5.066,5.066,0,0,1-1.75,3.99l-0.88.71-3.14,2.15q-2.925-3.585-2.92-5.97A5.042,5.042,0,0,1,1276.47,1010.36Zm29.28,32.27q3.69,3.225,9.8,3.22a18.625,18.625,0,0,0,10.48-3l2.13,2.43h9.29l-6.18-7.16q3.72-4.995,3.71-13.03h-6.96a15.817,15.817,0,0,1-1.67,7.25l-7.11-8.27,3.17-2.29c3.32-2.52,4.98-5.41,4.98-8.7a8.928,8.928,0,0,0-2.96-6.85,10.68,10.68,0,0,0-7.57-2.75,11.141,11.141,0,0,0-8.2,3.02,10.54,10.54,0,0,0-3.05,7.83,10.214,10.214,0,0,0,1.05,4.51,28.413,28.413,0,0,0,2.89,4.63,22.5,22.5,0,0,0-5.88,5.41,9.53,9.53,0,0,0-1.6,5.3A10.684,10.684,0,0,0,1305.75,1042.63Zm6.11-4.92a5.348,5.348,0,0,1-1.57-4,6.45,6.45,0,0,1,2.52-5.05l0.59-.43,8.13,9.38a10.384,10.384,0,0,1-5.58,1.64A5.583,5.583,0,0,1,1311.86,1037.71Zm2.15-26.5a3.705,3.705,0,0,1,2.82-1.13,3.647,3.647,0,0,1,2.69,1.05,3.369,3.369,0,0,1,1.05,2.46,4.461,4.461,0,0,1-.64,2.44,7.31,7.31,0,0,1-2.31,2.09l-2.18,1.45c-1.66-2.16-2.49-3.94-2.49-5.36A4.215,4.215,0,0,1,1314.01,1011.21Zm32.84,12.41a22.384,22.384,0,0,0-5.68,5.41,9.53,9.53,0,0,0-1.46,5.18,10.661,10.661,0,0,0,3.69,8.45q3.675,3.21,9.8,3.22a21.294,21.294,0,0,0,5.59-.68,20.2,20.2,0,0,0,4.86-2.1l1.92,2.18h10.65l-6.28-7.22q3.84-5.04,3.85-13.4h-8.02a15.036,15.036,0,0,1-1.56,6.83l-6.34-7.28,2.15-1.5q5.805-4.08,5.81-9.35a9.254,9.254,0,0,0-3.06-7.06,10.9,10.9,0,0,0-7.73-2.85,11.758,11.758,0,0,0-8.44,3.07,10.635,10.635,0,0,0-3.23,8.06,10.826,10.826,0,0,0,.95,4.45,26.516,26.516,0,0,0,2.62,4.53Zm3.74,13.45a5.035,5.035,0,0,1-1.3-3.51,6.943,6.943,0,0,1,1.61-4.48l0.26-.17,7.42,8.44a10.234,10.234,0,0,1-4.76,1.16A4.19,4.19,0,0,1,1350.59,1037.07Zm1.93-25.25a3.168,3.168,0,0,1,2.49-1,2.965,2.965,0,0,1,2.24.96,3.207,3.207,0,0,1,.9,2.26,4.1,4.1,0,0,1-.59,2.3,6.406,6.406,0,0,1-1.9,1.75l-1.9,1.19c-1.43-1.88-2.15-3.49-2.15-4.81A3.776,3.776,0,0,1,1352.52,1011.82Z" transform="translate(-978 -908)"/>
</svg>
